<svg width="16" height="16" viewBox="0 0 16 16" fill="none" xmlns="http://www.w3.org/2000/svg">
<path d="M9.5 9.49999L4.49999 2.49999" stroke="#000" stroke-linecap="round"/>
<path fill-rule="evenodd" clip-rule="evenodd" d="M8.03745 6.48743L6.09317 9.20942C5.93267 9.43412 5.98471 9.7464 6.20942 9.9069C6.43413 10.0674 6.7464 10.0154 6.90691 9.79066L8.65999 7.33634L8.03745 6.48743ZM9.27186 6.47972L11.9069 2.79066C12.0674 2.56595 12.0154 2.25368 11.7907 2.09317C11.566 1.93267 11.2537 1.98471 11.0932 2.20942L8.64933 5.6308L9.27186 6.47972Z" fill="#000"/>
<path d="M7 11.4897C7 12.5943 6.10457 13.4897 5 13.4897C3.89543 13.4897 3 12.5943 3 11.4897C3 10.3852 3.89543 9.48975 5 9.48975C6.10457 9.48975 7 10.3852 7 11.4897Z" stroke="#60CDFF"/>
<path d="M13 11.5C13 12.6046 12.1046 13.5 11 13.5C9.89543 13.5 9 12.6046 9 11.5C9 10.3954 9.89543 9.5 11 9.5C12.1046 9.5 13 10.3954 13 11.5Z" stroke="#60CDFF"/>
</svg>
