<svg width="16" height="16" viewBox="0 0 16 16" fill="none" xmlns="http://www.w3.org/2000/svg">
<path d="M6 6.5H6.20711L6.35355 6.35355L8.06066 4.64645C8.15443 4.55268 8.28161 4.5 8.41421 4.5H13C13.2761 4.5 13.5 4.72386 13.5 5V12C13.5 12.2761 13.2761 12.5 13 12.5H3C2.72386 12.5 2.5 12.2761 2.5 12V7C2.5 6.72386 2.72386 6.5 3 6.5H6Z" stroke="white"/>
<path d="M2.5 4C2.5 3.72386 2.72386 3.5 3 3.5H6.19722C6.29594 3.5 6.39244 3.52922 6.47457 3.58397L7.47073 4.24808C7.71713 4.41234 8.00664 4.5 8.30278 4.5H13C13.2761 4.5 13.5 4.72386 13.5 5V12C13.5 12.2761 13.2761 12.5 13 12.5H3C2.72386 12.5 2.5 12.2761 2.5 12V4Z" stroke="white"/>
<line x1="10.5" y1="7" x2="10.5" y2="13" stroke="#60CDFF"/>
<path d="M9.5 4.5H11.5V6C11.5 6.27614 11.2761 6.5 11 6.5H10C9.72386 6.5 9.5 6.27614 9.5 6V4.5Z" stroke="#60CDFF" stroke-linejoin="round"/>
<line x1="10.5" y1="8.5" x2="9.5" y2="8.5" stroke="#60CDFF" stroke-linecap="round"/>
<line x1="11.5" y1="9.5" x2="10.5" y2="9.5" stroke="#60CDFF" stroke-linecap="round"/>
<line x1="10.5" y1="10.5" x2="9.5" y2="10.5" stroke="#60CDFF" stroke-linecap="round"/>
</svg>
