<svg width="16" height="16" viewBox="0 0 16 16" fill="none" xmlns="http://www.w3.org/2000/svg">
<path fill-rule="evenodd" clip-rule="evenodd" d="M8 4H4.5C3.67157 4 3 4.67157 3 5.5V11.5C3 12.3284 3.67157 13 4.5 13H10.5C11.3284 13 12 12.3284 12 11.5V11H13V11.5C13 12.8807 11.8807 14 10.5 14H4.5C3.11929 14 2 12.8807 2 11.5V5.5C2 4.11929 3.11929 3 4.5 3H8V4Z" fill="white"/>
<path d="M10 2.5L15 6.5L9.99998 10.5V8.00001C9.99998 8.00001 7.5 7.5 5 10.5C5 5 9.99998 5.00001 9.99998 5.00001L10 2.5Z" stroke="#60CDFF" stroke-linejoin="round"/>
<mask id="path-3-inside-1_30_1445" fill="white">
<path d="M13 11C13 11.2761 12.7762 11.5 12.5 11.5C12.2239 11.5 12 11.2761 12 11C12 10.7239 12.2239 10.5 12.5 10.5C12.7762 10.5 13 10.7239 13 11Z"/>
<path d="M8.5 3.5C8.5 3.77614 8.27614 4 8 4C7.72386 4 7.5 3.77614 7.5 3.5C7.5 3.22386 7.72386 3 8 3C8.27614 3 8.5 3.22386 8.5 3.5Z"/>
</mask>
<path d="M13 11C13 11.2761 12.7762 11.5 12.5 11.5C12.2239 11.5 12 11.2761 12 11C12 10.7239 12.2239 10.5 12.5 10.5C12.7762 10.5 13 10.7239 13 11Z" fill="white"/>
<path d="M8.5 3.5C8.5 3.77614 8.27614 4 8 4C7.72386 4 7.5 3.77614 7.5 3.5C7.5 3.22386 7.72386 3 8 3C8.27614 3 8.5 3.22386 8.5 3.5Z" fill="white"/>
<path d="M12 11C12 10.7239 12.2239 10.5 12.5 10.5V12.5C13.3284 12.5 14 11.8284 14 11H12ZM12.5 10.5C12.7762 10.5 13 10.7239 13 11H11C11 11.8284 11.6716 12.5 12.5 12.5V10.5ZM13 11C13 11.2761 12.7762 11.5 12.5 11.5V9.5C11.6716 9.5 11 10.1716 11 11H13ZM12.5 11.5C12.2239 11.5 12 11.2761 12 11H14C14 10.1716 13.3284 9.5 12.5 9.5V11.5ZM7.5 3.5C7.5 3.22386 7.72386 3 8 3V5C8.82843 5 9.5 4.32843 9.5 3.5H7.5ZM8 3C8.27614 3 8.5 3.22386 8.5 3.5H6.5C6.5 4.32843 7.17157 5 8 5V3ZM8.5 3.5C8.5 3.77614 8.27614 4 8 4V2C7.17157 2 6.5 2.67157 6.5 3.5H8.5ZM8 4C7.72386 4 7.5 3.77614 7.5 3.5H9.5C9.5 2.67157 8.82843 2 8 2V4Z" fill="#60CDFF" mask="url(#path-3-inside-1_30_1445)"/>
</svg>
