<svg width="16" height="16" viewBox="0 0 16 16" fill="none" xmlns="http://www.w3.org/2000/svg">
<path d="M8 2L8 14M8 2L9.5 2M8 2L6.5 2M8 14L6.5 14M8 14L9.5 14" stroke="#60CDFF" stroke-linecap="round"/>
<path fill-rule="evenodd" clip-rule="evenodd" d="M9.50001 5H12C12.5523 5 13 5.44772 13 6V10C13 10.5523 12.5523 11 12 11H9.50001V12H12C13.1046 12 14 11.1046 14 10V6C14 4.89543 13.1046 4 12 4H9.50001V5ZM6.5 5V4H4C2.89543 4 2 4.89543 2 6V10C2 11.1046 2.89543 12 4 12H6.5V11H4C3.44772 11 3 10.5523 3 10V6C3 5.44772 3.44772 5 4 5H6.5Z" fill="white"/>
</svg>
