<svg width="17" height="17" viewBox="0 0 17 17" fill="none" xmlns="http://www.w3.org/2000/svg">
<rect x="4" y="3" width="9" height="11" rx="0.5" stroke="white"/>
<path d="M6 6.5C6 5.94772 6.44772 5.5 7 5.5C7.55228 5.5 8 5.94772 8 6.5C8 7.05228 7.55228 7.5 7 7.5C6.44772 7.5 6 7.05228 6 6.5Z" stroke="#60CDFF"/>
<path d="M6 10.5C6 9.94772 6.44772 9.5 7 9.5C7.55228 9.5 8 9.94772 8 10.5C8 11.0523 7.55228 11.5 7 11.5C6.44772 11.5 6 11.0523 6 10.5Z" stroke="#60CDFF"/>
<path d="M10 6.5H11" stroke="white" stroke-linecap="round"/>
<path d="M10 10.5H11" stroke="white" stroke-linecap="round"/>
</svg>
