<svg viewBox="0 0 1024 1024" version="1.1" xmlns="http://www.w3.org/2000/svg" p-id="7374" data-spm-anchor-id="a313x.icontype_auditing.i1.i0.86a73a81KJQoPX"><path d="M873.411765 30.117647a120.470588 120.470588 0 0 1 120.470588 120.470588v359.604706h-60.235294V150.588235a60.235294 60.235294 0 0 0-60.235294-60.235294H150.588235a60.235294 60.235294 0 0 0-60.235294 60.235294v542.117647a60.235294 60.235294 0 0 0 60.235294 60.235294h240.790589l-0.030118 30.117648L391.529412 933.647059h120.470588v60.235294H210.823529v-60.235294h120.470589v-120.470588H150.588235a120.470588 120.470588 0 0 1-120.470588-120.470589V150.588235a120.470588 120.470588 0 0 1 120.470588-120.470588h722.82353z" fill="#555555" p-id="7375"></path><path d="M876.182588 498.748235a30.117647 30.117647 0 0 1 5.662118 21.082353l-8.764235 81.016471a60.235294 60.235294 0 0 0 35.508705 61.530353l74.300236 32.918588a30.117647 30.117647 0 0 1 0 55.055059l-74.300236 32.918588a60.235294 60.235294 0 0 0-35.508705 61.560471l8.764235 81.01647a30.117647 30.117647 0 0 1-47.766588 27.497412l-65.054118-47.796706a60.235294 60.235294 0 0 0-71.348706 0l-65.024 47.796706a30.117647 30.117647 0 0 1-47.766588-27.497412l8.764235-81.01647a60.235294 60.235294 0 0 0-35.508706-61.560471l-74.300235-32.918588a30.117647 30.117647 0 0 1 0-55.055059l74.300235-32.918588a60.235294 60.235294 0 0 0 35.508706-61.560471l-8.764235-81.01647a30.117647 30.117647 0 0 1 47.766588-27.497412l65.054118 47.796706a60.235294 60.235294 0 0 0 71.348706 0l65.024-47.796706a30.117647 30.117647 0 0 1 42.10447 6.415059zM722.823529 662.588235a60.235294 60.235294 0 1 0 0 120.470589 60.235294 60.235294 0 0 0 0-120.470589z" fill="#0178D4" p-id="7376"></path></svg>