<svg viewBox="0 0 1024 1024" version="1.1" xmlns="http://www.w3.org/2000/svg" p-id="7401"><path d="M878.309798 41.592471c81.829647-37.135059 158.238118 19.184941 124.988235 121.253647l-1.505882 4.577882-2.831059 3.885176c-79.811765 109.086118-156.431059 208.112941-229.918118 296.96-76.589176 92.641882-174.320941 199.68-311.205647 334.817883l-20.299294-62.464c135.559529-133.812706 209.950118-219.858824 285.063529-310.723765 72.704-87.943529 148.630588-185.976471 227.749647-294.159059l-2.921411 3.945412 0.12047-0.421647c11.926588-41.622588-5.632-56.892235-36.894117-45.839059l-3.433412 1.295059-20.811294 18.883765C666.82368 312.801882 482.654268 491.821176 333.963445 650.631529l-67.041883-14.034823C425.129562 466.221176 630.682504 263.348706 870.569562 46.682353l3.493647-3.162353 4.246589-1.927529z" fill="#555555" p-id="7402"></path><path d="M207.499445 666.232471c92.822588-97.581176 250.337882 18.492235 250.337882 153.780705 0 85.443765-62.524235 148.871529-179.621647 190.223059l-3.463529 1.204706-3.614118 0.361412c-151.883294 14.848-228.803765 14.848-255.337412-6.505412-20.48-16.474353-21.202824-43.730824 0.692706-59.271529 2.921412-2.048 58.127059-25.419294 76.830118-38.912a144.926118 144.926118 0 0 0 37.074823-38.761412c17.076706-26.172235 21.112471-42.014118 23.973647-79.028706 0.481882-6.324706 0.752941-9.487059 1.114353-13.281882 4.126118-42.224941 17.106824-73.095529 52.013177-109.808941z m190.102588 153.780705c0-88.847059-99.177412-161.942588-146.432-112.278588-25.178353 26.473412-32.828235 44.724706-35.749647 74.179765-0.301176 3.252706-0.542118 6.113882-0.993882 12.047059-3.553882 46.170353-9.848471 70.987294-33.581177 107.309176a204.980706 204.980706 0 0 1-59.331765 59.452236l-1.65647 0.993882 4.758588-0.090353a2132.871529 2132.871529 0 0 0 129.987765-8.734118l6.866823-0.692706 6.083765-2.198588c86.016-32.165647 127.156706-73.667765 129.897412-124.506353l0.150588-5.481412z" fill="#0178D4" p-id="7403"></path></svg>