<svg viewBox="0 0 1024 1024" version="1.1" xmlns="http://www.w3.org/2000/svg" p-id="7454"><path d="M542.117647 301.176471v180.705882h180.705882v60.235294h-180.705882v180.705882h-60.235294v-180.705882h-180.705882v-60.235294h180.705882v-180.705882h60.235294z" fill="#0178D4" p-id="7455"></path><path d="M512 60.235294c249.494588 0 451.764706 202.270118 451.764706 451.764706 0 249.494588-202.270118 451.764706-451.764706 451.764706-249.494588 0-451.764706-202.270118-451.764706-451.764706C60.235294 262.505412 262.505412 60.235294 512 60.235294z m0 60.235294C295.755294 120.470588 120.470588 295.755294 120.470588 512s175.284706 391.529412 391.529412 391.529412 391.529412-175.284706 391.529412-391.529412S728.244706 120.470588 512 120.470588z" fill="#555555" p-id="7456"></path></svg>