<svg viewBox="0 0 1024 1024" version="1.1" xmlns="http://www.w3.org/2000/svg" p-id="7534"><path d="M180.705882 948.705882a90.352941 90.352941 0 0 1-90.352941-90.352941v-632.470588a120.470588 120.470588 0 0 1 120.470588-120.470588h239.194353v60.235294H210.823529a60.235294 60.235294 0 0 0-60.235294 60.235294v301.176471h271.058824a90.352941 90.352941 0 0 1 90.352941 90.352941v271.058823h301.176471a60.235294 60.235294 0 0 0 60.235294-60.235294v-239.043765h60.235294V828.235294a120.470588 120.470588 0 0 1-120.470588 120.470588H180.705882z m240.941177-361.411764H150.588235v240.941176a60.235294 60.235294 0 0 0 60.235294 60.235294h240.941177v-271.058823a30.117647 30.117647 0 0 0-26.593882-29.906824L421.647059 587.294118z" fill="#555555" p-id="7535"></path><path d="M933.647059 105.411765v331.294117h-50.959059V198.957176l-257.505882 257.505883-42.616471-42.556235 257.505882-257.536H602.352941V105.411765h331.294118z" fill="#0178D4" p-id="7536"></path></svg>