<svg viewBox="0 0 1024 1024" version="1.1" xmlns="http://www.w3.org/2000/svg" p-id="7428"><path d="M331.294118 90.352941a120.470588 120.470588 0 0 1 120.470588 120.470588v120.470589a120.470588 120.470588 0 0 1-120.470588 120.470588H210.823529a120.470588 120.470588 0 0 1-120.470588-120.470588V210.823529a120.470588 120.470588 0 0 1 120.470588-120.470588h120.470589z m0 60.235294H210.823529a60.235294 60.235294 0 0 0-60.235294 60.235294v120.470589a60.235294 60.235294 0 0 0 60.235294 60.235294h120.470589a60.235294 60.235294 0 0 0 60.235294-60.235294V210.823529a60.235294 60.235294 0 0 0-60.235294-60.235294zM813.176471 90.352941a120.470588 120.470588 0 0 1 120.470588 120.470588v120.470589a120.470588 120.470588 0 0 1-120.470588 120.470588h-120.470589a120.470588 120.470588 0 0 1-120.470588-120.470588V210.823529a120.470588 120.470588 0 0 1 120.470588-120.470588h120.470589z m0 60.235294h-120.470589a60.235294 60.235294 0 0 0-60.235294 60.235294v120.470589a60.235294 60.235294 0 0 0 60.235294 60.235294h120.470589a60.235294 60.235294 0 0 0 60.235294-60.235294V210.823529a60.235294 60.235294 0 0 0-60.235294-60.235294zM813.176471 572.235294a120.470588 120.470588 0 0 1 120.470588 120.470588v120.470589a120.470588 120.470588 0 0 1-120.470588 120.470588h-120.470589a120.470588 120.470588 0 0 1-120.470588-120.470588v-120.470589a120.470588 120.470588 0 0 1 120.470588-120.470588h120.470589z m0 60.235294h-120.470589a60.235294 60.235294 0 0 0-60.235294 60.235294v120.470589a60.235294 60.235294 0 0 0 60.235294 60.235294h120.470589a60.235294 60.235294 0 0 0 60.235294-60.235294v-120.470589a60.235294 60.235294 0 0 0-60.235294-60.235294zM331.294118 572.235294a120.470588 120.470588 0 0 1 120.470588 120.470588v120.470589a120.470588 120.470588 0 0 1-120.470588 120.470588H210.823529a120.470588 120.470588 0 0 1-120.470588-120.470588v-120.470589a120.470588 120.470588 0 0 1 120.470588-120.470588h120.470589z m0 60.235294H210.823529a60.235294 60.235294 0 0 0-60.235294 60.235294v120.470589a60.235294 60.235294 0 0 0 60.235294 60.235294h120.470589a60.235294 60.235294 0 0 0 60.235294-60.235294v-120.470589a60.235294 60.235294 0 0 0-60.235294-60.235294z" fill="#555555" p-id="7429"></path></svg>