<svg viewBox="0 0 1024 1024" version="1.1" xmlns="http://www.w3.org/2000/svg" p-id="860"><path d="M581.952 626.592a32 32 0 0 0 52.096-37.184l-52.096 37.184zM314.048 141.44A32 32 0 0 0 261.952 178.56L314.048 141.44z m320 448l-320-448L261.952 178.56l320 448 52.096-37.184z" fill="#555555" p-id="861"></path><path d="M514.4 415.2l-124.448 174.208a32 32 0 0 0 52.096 37.184l112.192-157.056-39.84-54.336z m79.008-0.512l168.64-236.096a32 32 0 1 0-52.096-37.184L553.6 360.32l39.84 54.336z" fill="#555555" p-id="862"></path><path d="M480 735.36a160 160 0 1 1-320 0 160 160 0 0 1 320 0z m-64 0a92.48 92.48 0 0 0-28.128-67.904A92.48 92.48 0 0 0 320 639.36a92.48 92.48 0 0 0-67.872 28.16A92.48 92.48 0 0 0 224 735.296c0 26.528 9.376 49.152 28.128 67.904a92.48 92.48 0 0 0 67.872 28.096 92.48 92.48 0 0 0 67.872-28.096A92.48 92.48 0 0 0 416 735.328zM864 736a160 160 0 1 1-320 0 160 160 0 0 1 320 0z m-64 0a92.48 92.48 0 0 0-28.128-67.872A92.48 92.48 0 0 0 704 640a92.48 92.48 0 0 0-67.872 28.128A92.48 92.48 0 0 0 608 736c0 26.496 9.376 49.152 28.128 67.872A92.48 92.48 0 0 0 704 832a92.48 92.48 0 0 0 67.872-28.128A92.48 92.48 0 0 0 800 736z" fill="#0178D4" p-id="863"></path></svg>