<svg viewBox="0 0 1024 1024" version="1.1" xmlns="http://www.w3.org/2000/svg" p-id="888"><path d="M800 320a96 96 0 0 1 96 96v384a96 96 0 0 1-96 96h-256a96 96 0 0 1-96-96V416a96 96 0 0 1 96-96h256z m0 64h-256a32 32 0 0 0-32 32v384a32 32 0 0 0 32 32h256a32 32 0 0 0 32-32V416a32 32 0 0 0-32-32z" fill="#0178D4" p-id="889"></path><path d="M480 64a96 96 0 0 1 0 192h-128a96 96 0 1 1 0-192h128z m0 64h-128a32 32 0 1 0 0 64h128a32 32 0 0 0 0-64z" fill="#555555" p-id="890"></path><path d="M261.504 128H224a96 96 0 0 0-96 96v576a96 96 0 0 0 96 96h160v-64H224c-21.344 0-32-10.656-32-32V224c0-21.344 10.656-32 32-32h37.504a95.296 95.296 0 0 1 0-64z m308.992 64a95.296 95.296 0 0 0 0-64H608a96 96 0 0 1 96 96v32h-64V224c0-21.344-10.656-32-32-32h-37.504z" fill="#555555" p-id="891"></path></svg>