<?xml version="1.0" encoding="UTF-8"?>
<svg width="32px" height="32px" viewBox="0 0 32 32" version="1.1" xmlns="http://www.w3.org/2000/svg" xmlns:xlink="http://www.w3.org/1999/xlink">
    <title>FileExplorer</title>
    <defs>
        <linearGradient x1="50%" y1="-3.06161713e-15%" x2="50%" y2="100%" id="linearGradient-1">
            <stop stop-color="#FFCF4D" offset="0%"></stop>
            <stop stop-color="#F4B509" offset="100%"></stop>
        </linearGradient>
        <linearGradient x1="50%" y1="-3.06161713e-15%" x2="50%" y2="100%" id="linearGradient-2">
            <stop stop-color="#FFD04E" offset="0%"></stop>
            <stop stop-color="#F4B509" offset="100%"></stop>
        </linearGradient>
    </defs>
    <g id="FileExplorer" stroke="none" stroke-width="1" fill="none" fill-rule="evenodd">
        <g id="file-Explorer" transform="translate(1, 3)">
            <g id="编组" transform="translate(0, 3)">
                <rect id="矩形" fill="url(#linearGradient-1)" fill-rule="nonzero" x="0" y="0" width="30" height="24" rx="2"></rect>
                <rect id="矩形" stroke="url(#linearGradient-2)" x="0.5" y="0.5" width="29" height="23" rx="1.5"></rect>
            </g>
            <path d="M0,1 C0,0.447715 0.447715,0 1,0 C1,0 9.93381,0 9.93381,0 C10.2851,0 10.6106,0.184299 10.7913,0.485504 C10.7913,0.485504 12.5913,3.4855 12.5913,3.4855 C12.9912,4.15203 12.5111,5 11.7338,5 C11.7338,5 0,5 0,5 C0,5 0,1 0,1 C0,1 0,1 0,1 Z" id="路径" fill="#E09F00" fill-rule="nonzero"></path>
            <path d="M5,21 C5,19.895431 5.895431,19 7,19 C7,19 23,19 23,19 C24.1046,19 25,19.895431 25,21 C25,21 25,27 25,27 C25,27 5,27 5,27 C5,27 5,21 5,21 C5,21 5,21 5,21 Z" id="路径" fill="#036ABB" fill-rule="nonzero"></path>
            <path d="M22,22 C22,22 8,22 8,22 C8,22 8,23 8,23 C8,23 22,23 22,23 C22,23 22,22 22,22 C22,22 22,22 22,22 Z" id="路径" fill="#114A8B" fill-rule="nonzero"></path>
        </g>
    </g>
</svg>