<?xml version="1.0" encoding="UTF-8"?>
<svg width="32px" height="32px" viewBox="0 0 32 32" version="1.1" xmlns="http://www.w3.org/2000/svg" xmlns:xlink="http://www.w3.org/1999/xlink">
    <title>finder</title>
    <defs>
        <linearGradient x1="50%" y1="0%" x2="50%" y2="100%" id="linearGradient-1">
            <stop stop-color="#FFCF4A" offset="0%"></stop>
            <stop stop-color="#F6B508" offset="100%"></stop>
        </linearGradient>
        <linearGradient x1="50%" y1="0%" x2="50%" y2="100%" id="linearGradient-2">
            <stop stop-color="#E09E02" offset="0%"></stop>
            <stop stop-color="#C58C00" offset="100%"></stop>
        </linearGradient>
        <linearGradient x1="50%" y1="0%" x2="50%" y2="100%" id="linearGradient-3">
            <stop stop-color="#218DCA" offset="0%"></stop>
            <stop stop-color="#0A7BCA" offset="100%"></stop>
        </linearGradient>
    </defs>
    <g id="finder" stroke="none" stroke-width="1" fill="none" fill-rule="evenodd">
        <g id="编组-2" transform="translate(4, 6)">
            <g id="编组">
                <path d="M1,0 L8,0 C9.65685425,-3.04359188e-16 11,1.34314575 11,3 L11,6 L11,6 L0,6 L0,1 C-6.76353751e-17,0.44771525 0.44771525,6.76353751e-17 1,0 Z" id="矩形" fill="#E09E02"></path>
                <path d="M0,1 L23,1 C23.5522847,1 24,1.44771525 24,2 L24,19 C24,19.5522847 23.5522847,20 23,20 L1,20 C0.44771525,20 3.38176876e-17,19.5522847 0,19 L0,1 L0,1 Z" id="矩形" fill="url(#linearGradient-1)"></path>
                <path d="M0,1 L10,1 C10,1.55228475 9.55228475,2 9,2 L0,2 L0,2 L0,1 Z" id="矩形" fill="url(#linearGradient-2)"></path>
                <path d="M0,1 L22.75,1 C22.8880712,1 23,1.11192881 23,1.25 L23,1.5 L23,1.5 L0,1.5 L0,1 Z" id="矩形" fill="#E09E02"></path>
            </g>
            <path d="M7,13 L17,13 C18.6568542,13 20,14.3431458 20,16 L20,20 L20,20 L4,20 L4,16 C4,14.3431458 5.34314575,13 7,13 Z" id="矩形" fill="url(#linearGradient-3)"></path>
            <rect id="矩形" fill="#124F91" x="7" y="16" width="10" height="1"></rect>
        </g>
    </g>
</svg>