<?xml version="1.0" encoding="UTF-8"?>
<svg width="32px" height="32px" viewBox="0 0 32 32" version="1.1" xmlns="http://www.w3.org/2000/svg" xmlns:xlink="http://www.w3.org/1999/xlink">
    <title>MicrosoftEdge</title>
    <defs>
        <rect id="path-1" x="1" y="1" width="30" height="30"></rect>
        <linearGradient x1="0%" y1="50.0129938%" x2="100.026464%" y2="50.0129938%" id="linearGradient-3">
            <stop stop-color="#0C59A4" offset="0%"></stop>
            <stop stop-color="#114A8B" offset="100%"></stop>
        </linearGradient>
        <radialGradient cx="55.2461939%" cy="50.9262506%" fx="55.2461939%" fy="50.9262506%" r="61.975251%" gradientTransform="translate(0.5525, 0.5093), scale(0.8632, 1), translate(-0.5525, -0.5093)" id="radialGradient-4">
            <stop stop-color="#000000" stop-opacity="0" offset="0%"></stop>
            <stop stop-color="#000000" stop-opacity="0" offset="72.0000029%"></stop>
            <stop stop-color="#000000" stop-opacity="0.529999971" offset="94.9999988%"></stop>
            <stop stop-color="#000000" offset="100%"></stop>
        </radialGradient>
        <linearGradient x1="90.5872703%" y1="24.7968987%" x2="24.4785711%" y2="83.1597924%" id="linearGradient-5">
            <stop stop-color="#1B9DE2" offset="0%"></stop>
            <stop stop-color="#1595DF" offset="15.9999996%"></stop>
            <stop stop-color="#0680D7" offset="67.0000017%"></stop>
            <stop stop-color="#0078D4" offset="100%"></stop>
        </linearGradient>
        <radialGradient cx="41.8348503%" cy="72.5715896%" fx="41.8348503%" fy="72.5715896%" r="85.121997%" gradientTransform="translate(0.4183, 0.7257), scale(1, 0.8105), rotate(98.6156), translate(-0.4183, -0.7257)" id="radialGradient-6">
            <stop stop-color="#000000" stop-opacity="0" offset="0%"></stop>
            <stop stop-color="#000000" stop-opacity="0" offset="75.999999%"></stop>
            <stop stop-color="#000000" stop-opacity="0.5" offset="94.9999988%"></stop>
            <stop stop-color="#000000" offset="100%"></stop>
        </radialGradient>
        <radialGradient cx="10.1019039%" cy="27.7890049%" fx="10.1019039%" fy="27.7890049%" r="118.830872%" gradientTransform="translate(0.101, 0.2779), scale(0.6659, 1), rotate(92.2906), translate(-0.101, -0.2779)" id="radialGradient-7">
            <stop stop-color="#35C1F1" offset="0%"></stop>
            <stop stop-color="#34C1ED" offset="10.9999999%"></stop>
            <stop stop-color="#2FC2DF" offset="23.0000004%"></stop>
            <stop stop-color="#2BC3D2" offset="31.0000002%"></stop>
            <stop stop-color="#36C752" offset="67.0000017%"></stop>
            <stop stop-color="#36C752" offset="100%"></stop>
        </radialGradient>
        <radialGradient cx="93.7723391%" cy="45.402779%" fx="93.7723391%" fy="45.402779%" r="57.0950618%" gradientTransform="translate(0.9377, 0.454), scale(0.6659, 1), rotate(73.7398), translate(-0.9377, -0.454)" id="radialGradient-8">
            <stop stop-color="#66EB6E" offset="0%"></stop>
            <stop stop-color="#66EB6E" stop-opacity="0" offset="100%"></stop>
        </radialGradient>
    </defs>
    <g id="MicrosoftEdge" stroke="none" stroke-width="1" fill="none" fill-rule="evenodd">
        <mask id="mask-2" fill="white">
            <use xlink:href="#path-1"></use>
        </mask>
        <g id="矩形"></g>
        <g id="编组" mask="url(#mask-2)">
            <g transform="translate(0.9973, 1)">
                <path d="M27.0786126,22.3289857 C26.6786126,22.5381857 26.2661126,22.7224857 25.8434126,22.8808857 C24.4980126,23.3842857 23.0728126,23.6407857 21.6364126,23.6379857 C16.0910726,23.6379857 11.2606126,19.8234957 11.2606126,14.9285757 C11.2677026,14.2720457 11.4498926,13.6293157 11.7883626,13.0667157 C12.1268226,12.5041137 12.6093026,12.0420387 13.1860026,11.7281857 C8.17037263,11.9391227 6.88131263,17.1656857 6.88131263,20.2277957 C6.88131263,28.8855857 14.8606126,29.7633857 16.5797526,29.7633857 C17.5067126,29.7633857 18.9047126,29.4937857 19.7438126,29.2289857 C19.7438126,29.2289857 19.8973126,29.1773857 19.8973126,29.1773857 C23.1261126,28.0611857 25.8787126,25.8789857 27.7020126,22.9898857 C27.7578126,22.9018857 27.7828126,22.7977857 27.7729126,22.6940857 C27.7629126,22.5903857 27.7187126,22.4928857 27.6472126,22.4170857 C27.5757126,22.3412857 27.4810126,22.2914857 27.3780126,22.2754857 C27.2750126,22.2594857 27.1697126,22.2783857 27.0786126,22.3289857 C27.0786126,22.3289857 27.0786126,22.3289857 27.0786126,22.3289857 Z" id="路径" fill="url(#linearGradient-3)" fill-rule="nonzero"></path>
                <g id="编组" opacity="0.349999994" stroke-width="1" fill="none" fill-rule="evenodd" transform="translate(6.8813, 11.7282)">
                    <path d="M20.1973,10.6008 C19.7973,10.81 19.3848,10.9943 18.9621,11.1527 C17.6167,11.6561 16.1915,11.9126 14.7551,11.9098 C9.20976,11.9098 4.3793,8.09531 4.3793,3.20039 C4.38639,2.54386 4.56858,1.90113 4.90705,1.33853 C5.24551,0.775928 5.72799,0.313853 6.30469,-1.77635684e-15 C1.28906,0.210937 0,5.4375 0,8.49961 C0,17.1574 7.9793,18.0352 9.69844,18.0352 C10.6254,18.0352 12.0234,17.7656 12.8625,17.5008 C12.8625,17.5008 13.016,17.4492 13.016,17.4492 C16.2448,16.333 18.9974,14.1508 20.8207,11.2617 C20.8765,11.1737 20.9015,11.0696 20.8916,10.9659 C20.8816,10.8622 20.8374,10.7647 20.7659,10.6889 C20.6944,10.6131 20.5997,10.5633 20.4967,10.5473 C20.3937,10.5313 20.2884,10.5502 20.1973,10.6008 C20.1973,10.6008 20.1973,10.6008 20.1973,10.6008 Z" id="路径" fill="url(#radialGradient-4)" fill-rule="nonzero"></path>
                </g>
                <path d="M12.390377,28.2913908 C11.345077,27.6426908 10.439277,26.7925908 9.72548697,25.7905908 C8.91195697,24.6759908 8.35213697,23.3969908 8.08528697,22.0430908 C7.81843697,20.6891908 7.85101697,19.2933908 8.18075697,17.9534908 C8.51048697,16.6134908 9.12938697,15.3619408 9.99403697,14.2865308 C10.858677,13.2111108 11.948177,12.3378908 13.186077,11.7281108 C13.551677,11.5558508 14.176277,11.2441308 15.007177,11.2593608 C15.592477,11.2636208 16.168877,11.4033908 16.691277,11.6676908 C17.213577,11.9320008 17.667577,12.3136708 18.017677,12.7828008 C18.490877,13.4146608 18.751777,14.1801808 18.762977,14.9695208 C18.762977,14.9449108 21.629377,5.6413908 9.38798697,5.6413908 C4.24345697,5.6413908 0.012988702,10.5234308 0.012988702,14.8066308 C-0.00730352799,17.0723908 0.477488972,19.3141908 1.43212697,21.3690908 C2.99227697,24.6978908 5.72055697,27.3378908 9.09887697,28.7876908 C12.477177,30.2374908 16.270277,30.3961908 19.757877,29.2335908 C18.536777,29.6185908 17.246677,29.7341908 15.976477,29.5722908 C14.706377,29.4104908 13.486477,28.9750908 12.400877,28.2960908 C12.400877,28.2960908 12.390377,28.2913908 12.390377,28.2913908 C12.390377,28.2913908 12.390377,28.2913908 12.390377,28.2913908 Z" id="路径" fill="url(#linearGradient-5)" fill-rule="nonzero"></path>
                <g id="编组" opacity="0.409999996" stroke-width="1" fill="none" fill-rule="evenodd" transform="translate(0.0124, 5.6414)">
                    <path d="M12.378,22.65 C11.3327,22.0013 10.4269,21.1512 9.71311,20.1492 C8.89958,19.0346 8.33976,17.7556 8.07291,16.4017 C7.80606,15.0478 7.83864,13.652 8.16838,12.3121 C8.49811,10.9721 9.11701,9.72055 9.98166,8.64514 C10.8463,7.56972 11.9358,6.6965 13.1737,6.08672 C13.5393,5.91446 14.1639,5.60274 14.9948,5.61797 C15.5801,5.62223 16.1565,5.762 16.6789,6.0263 C17.2012,6.29061 17.6552,6.67228 18.0053,7.14141 C18.4785,7.77327 18.7394,8.53879 18.7506,9.32813 C18.7506,9.30352 21.617,0 9.37561,0 C4.23108,0 0.000611729794,4.88204 0.000611729794,9.16524 C-0.0196805002,11.431 0.465112,13.6728 1.41975,15.7277 C2.9799,19.0565 5.70818,21.6965 9.0865,23.1463 C12.4648,24.5961 16.2579,24.7548 19.7455,23.5922 C18.5244,23.9772 17.2343,24.0928 15.9641,23.9309 C14.694,23.7691 13.4741,23.3337 12.3885,22.6547 C12.3885,22.6547 12.378,22.65 12.378,22.65 C12.378,22.65 12.378,22.65 12.378,22.65 Z" id="路径" fill="url(#radialGradient-6)" fill-rule="nonzero"></path>
                </g>
                <path d="M17.8512,17.4445 C17.7562,17.5676 17.4644,17.7375 17.4644,18.1078 C17.4644,18.4137 17.6637,18.7078 18.0176,18.9551 C19.7027,20.1269 22.8797,19.9723 22.8879,19.9723 C24.1365,19.9693 25.3615,19.6313 26.4352,18.9937 C27.5182,18.3614 28.4171,17.4568 29.0426,16.3697 C29.6682,15.2827 29.9986,14.051 30.0012,12.7969 C30.0316,10.1707 29.0637,8.42461 28.6723,7.65117 C26.1891,2.79375 20.8289,-8.8817842e-16 15,-8.8817842e-16 C11.058,-0.000389715 7.27434,1.55097 4.46728,4.31856 C1.66022,7.08614 0.0554339,10.8475 0,14.7891 C0.05625,10.507 4.3125,7.04883 9.375,7.04883 C9.78515,7.04883 12.1242,7.08867 14.2969,8.2289 C16.2117,9.23437 17.2148,10.4484 17.9121,11.652 C18.6363,12.9023 18.7652,14.482 18.7652,15.1113 C18.7652,15.7406 18.4441,16.6734 17.8512,17.4445 C17.8512,17.4445 17.8512,17.4445 17.8512,17.4445 Z" id="路径" fill="url(#radialGradient-7)" fill-rule="nonzero"></path>
                <path d="M17.8512,17.4445 C17.7562,17.5676 17.4644,17.7375 17.4644,18.1078 C17.4644,18.4137 17.6637,18.7078 18.0176,18.9551 C19.7027,20.1269 22.8797,19.9723 22.8879,19.9723 C24.1365,19.9693 25.3615,19.6313 26.4352,18.9937 C27.5182,18.3614 28.4171,17.4568 29.0426,16.3697 C29.6682,15.2827 29.9986,14.051 30.0012,12.7969 C30.0316,10.1707 29.0637,8.42461 28.6723,7.65117 C26.1891,2.79375 20.8289,-8.8817842e-16 15,-8.8817842e-16 C11.058,-0.000389715 7.27434,1.55097 4.46728,4.31856 C1.66022,7.08614 0.0554339,10.8475 0,14.7891 C0.05625,10.507 4.3125,7.04883 9.375,7.04883 C9.78515,7.04883 12.1242,7.08867 14.2969,8.2289 C16.2117,9.23437 17.2148,10.4484 17.9121,11.652 C18.6363,12.9023 18.7652,14.482 18.7652,15.1113 C18.7652,15.7406 18.4441,16.6734 17.8512,17.4445 C17.8512,17.4445 17.8512,17.4445 17.8512,17.4445 Z" id="路径" fill="url(#radialGradient-8)" fill-rule="nonzero"></path>
            </g>
        </g>
    </g>
</svg>