<?xml version="1.0" encoding="UTF-8"?>
<svg width="32px" height="32px" viewBox="0 0 32 32" version="1.1" xmlns="http://www.w3.org/2000/svg" xmlns:xlink="http://www.w3.org/1999/xlink">
    <title>SearchDark</title>
    <g id="SearchDark" stroke="none" stroke-width="1" fill="none" fill-rule="evenodd">
        <g id="编组-2" transform="translate(16.5, 16) scale(-1, 1) translate(-16.5, -16)translate(3, 2)">
            <g id="编组" transform="translate(3, 0)" stroke="#000000" stroke-width="3">
                <circle id="椭圆形" cx="12" cy="12" r="10.5"></circle>
            </g>
            <path d="M0.361148531,25.5238095 C-0.177991469,26.1527995 -0.105151469,27.0997495 0.523841531,27.6388795 C1.15282953,28.1779695 2.09977953,28.1051695 2.63890953,27.4761895 C2.63890953,27.4761895 0.361148531,25.5238095 0.361148531,25.5238095 C0.361148531,25.5238095 0.361148531,25.5238095 0.361148531,25.5238095 Z M8.47621953,18.3611185 C7.84722953,17.8219785 6.90027953,17.8948185 6.36113953,18.5238115 C6.36113953,18.5238115 8.63891953,20.4761895 8.63891953,20.4761895 C9.17804953,19.8471995 9.10520953,18.9002465 8.47621953,18.3611185 Z M8.63891953,20.4761895 C8.63891953,20.4761895 6.36114853,18.5238115 6.36114853,18.5238115 C6.36114853,18.5238115 0.361148531,25.5238115 0.361148531,25.5238115 C0.361148531,25.5238115 2.63890953,27.4761895 2.63890953,27.4761895 C2.63890953,27.4761895 8.63891953,20.4761895 8.63891953,20.4761895 Z" id="形状" fill="#000000" fill-rule="nonzero"></path>
        </g>
    </g>
</svg>