<?xml version="1.0" encoding="UTF-8"?>
<svg width="32px" height="32px" viewBox="0 0 32 32" version="1.1" xmlns="http://www.w3.org/2000/svg" xmlns:xlink="http://www.w3.org/1999/xlink">
    <title>Search</title>
    <g id="Search" stroke="none" stroke-width="1" fill="none" fill-rule="evenodd">
        <g id="编组" transform="translate(6, 2)">
            <circle id="椭圆形" fill-opacity="0.629999995" fill="#3B487A" fill-rule="nonzero" cx="12" cy="12" r="12"></circle>
            <circle id="椭圆形" stroke="#FFFFFF" stroke-width="3" cx="12" cy="12" r="10.5"></circle>
        </g>
        <path d="M3.36114853,27.5238095 C2.82200853,28.1527995 2.89484853,29.0997495 3.52384153,29.6388795 C4.15282953,30.1779695 5.09977953,30.1051695 5.63890953,29.4761895 C5.63890953,29.4761895 3.36114853,27.5238095 3.36114853,27.5238095 C3.36114853,27.5238095 3.36114853,27.5238095 3.36114853,27.5238095 Z M11.6389195,22.4761895 C12.1780495,21.8471995 12.1052095,20.9002465 11.4762195,20.3611185 C10.8472295,19.8219785 9.90027953,19.8948185 9.36113953,20.5238115 C9.36113953,20.5238115 11.6389195,22.4761895 11.6389195,22.4761895 C11.6389195,22.4761895 11.6389195,22.4761895 11.6389195,22.4761895 Z M5.63890953,29.4761895 C5.63890953,29.4761895 11.6389195,22.4761895 11.6389195,22.4761895 C11.6389195,22.4761895 9.36114853,20.5238115 9.36114853,20.5238115 C9.36114853,20.5238115 3.36114853,27.5238115 3.36114853,27.5238115 C3.36114853,27.5238115 5.63890953,29.4761895 5.63890953,29.4761895 C5.63890953,29.4761895 5.63890953,29.4761895 5.63890953,29.4761895 Z" id="形状" fill="#FFFFFF" fill-rule="nonzero"></path>
    </g>
</svg>