<?xml version="1.0" encoding="UTF-8"?>
<svg width="32px" height="32px" viewBox="0 0 32 32" version="1.1" xmlns="http://www.w3.org/2000/svg" xmlns:xlink="http://www.w3.org/1999/xlink">
    <title>win</title>
    <defs>
        <linearGradient x1="0%" y1="0%" x2="100%" y2="100%" id="linearGradient-1">
            <stop stop-color="#4BD0FF" offset="0%"></stop>
            <stop stop-color="#0178D3" offset="100%"></stop>
        </linearGradient>
    </defs>
    <g id="win" stroke="none" stroke-width="1" fill="none" fill-rule="evenodd">
        <path d="M4,16.5 L15.5,16.5 L15.5,28 L5,28 C4.44771525,28 4,27.5522847 4,27 L4,16.5 Z M28,16.5 L28,27 C28,27.5522847 27.5522847,28 27,28 L16.5,28 L16.5,16.5 L28,16.5 Z M27,4 C27.5522847,4 28,4.44771525 28,5 L28,15.5 L16.5,15.5 L16.5,4 L27,4 Z M15.5,15.5 L4,15.5 L4,5 C4,4.44771525 4.44771525,4 5,4 L15.5,4 L15.5,15.5 Z" id="形状结合" fill="url(#linearGradient-1)"></path>
    </g>
</svg>