<?xml version="1.0" encoding="UTF-8"?>
<svg width="32px" height="32px" viewBox="0 0 32 32" version="1.1" xmlns="http://www.w3.org/2000/svg" xmlns:xlink="http://www.w3.org/1999/xlink">
    <title>Windows</title>
    <defs>
        <linearGradient x1="-0.361446291%" y1="-0.1225485%" x2="100%" y2="100%" id="linearGradient-1">
            <stop stop-color="#8AECF6" offset="0%"></stop>
            <stop stop-color="#24B8E7" offset="37.6994818%"></stop>
            <stop stop-color="#3774C4" offset="100%"></stop>
        </linearGradient>
    </defs>
    <g id="Windows" stroke="none" stroke-width="1" fill="none" fill-rule="evenodd">
        <path d="M2,3.70588 C2,2.763748 2.76375,2 3.70588,2 C3.70588,2 15.7663,2 15.7663,2 C15.7663,2 15.7663,15.576 15.7663,15.576 C15.7663,15.576 2,15.576 2,15.576 C2,15.576 2,3.70588 2,3.70588 C2,3.70588 2,3.70588 2,3.70588 Z M31,3.70588 C31,2.763748 30.2362,2 29.2941,2 C29.2941,2 17.2337,2 17.2337,2 C17.2337,2 17.2337,15.576 17.2337,15.576 C17.2337,15.576 31,15.576 31,15.576 C31,15.576 31,3.70588 31,3.70588 C31,3.70588 31,3.70588 31,3.70588 Z M2,29.2941 C2,30.2362 2.76375,31 3.70588,31 C3.70588,31 15.7663,31 15.7663,31 C15.7663,31 15.7663,16.9975 15.7663,16.9975 C15.7663,16.9975 2,16.9975 2,16.9975 C2,16.9975 2,29.2941 2,29.2941 C2,29.2941 2,29.2941 2,29.2941 Z M31,29.2941 C31,30.2362 30.2362,31 29.2941,31 C29.2941,31 17.2337,31 17.2337,31 C17.2337,31 17.2337,16.9975 17.2337,16.9975 C17.2337,16.9975 31,16.9975 31,16.9975 C31,16.9975 31,29.2941 31,29.2941 C31,29.2941 31,29.2941 31,29.2941 Z" id="形状" fill="url(#linearGradient-1)" fill-rule="nonzero"></path>
    </g>
</svg>